#!OML:ASF H:\MichaelJackson\Top Level 1\Subject 1\Session 1\male.ASF
:FULLY-SPECIFIED
:DEGREES
1631
root -3.83516 16.7371 31.0593 -334.365 -43.5662 -19.5761
lowerback 2.46892 2.74738 7.07973
upperback 1.15257 3.79061 2.15258
thorax 0.120585 1.90535 -1.81416
lowerneck -11.0189 1.41624 3.43189
upperneck 20.8952 0.957954 0.838314
head 8.32238 0.751605 -0.203535
rclavicle 2.56432e-014 5.08889e-014
rhumerus -230.629 164.014 -281.35
rradius 79.1135
rwrist -40.7779
rhand -29.4704 -61.0221
rfingers 7.12502
rthumb -2.80596 -269.017
lclavicle 2.56432e-014 5.08889e-014
lhumerus -11.471 -10.3713 83.2549
lradius 97.7906
lwrist 59.4923
lhand -22.3417 25.6748
lfingers 7.12502
lthumb 4.07878 55.6155
rfemur -23.9026 -14.1541 39.4351
rtibia 33.5017
rfoot -19.942 25.675
rtoes 26.6945
lfemur -48.8698 17.5082 -9.28017
ltibia 49.0549
lfoot -3.36706 0.280173
ltoes 35.7252
1632
root -3.86105 16.7344 31.1077 -334.111 -43.8284 -19.726
lowerback 2.37923 2.83022 7.04445
upperback 1.10963 3.89496 2.11456
thorax 0.135326 1.95729 -1.83107
lowerneck -11.0352 1.46846 3.44931
upperneck 20.7168 1.04735 0.768858
head 8.26676 0.787352 -0.220558
rclavicle -3.67752e-014 1.27222e-014
rhumerus -230.414 163.742 -281.359
rradius 79.1255
rwrist -40.7614
rhand -29.1257 -60.979
rfingers 7.12502
rthumb -2.47308 -269.056
lclavicle -3.67752e-014 1.27222e-014
lhumerus -12.2179 -10.6507 82.9578
lradius 97.3438
lwrist 57.7226
lhand -20.5474 24.5437
lfingers 7.12502
lthumb 5.81135 54.444
rfemur -23.7626 -14.0397 39.3587
rtibia 33.4854
rfoot -20.3357 25.6168
rtoes 25.8778
lfemur -48.7005 17.751 -9.31005
ltibia 49.1217
lfoot -4.07854 0.299347
ltoes 35.6617
1633
root -3.88752 16.7324 31.1575 -333.881 -44.0812 -19.8648
lowerback 2.2996 2.91812 7.00966
upperback 1.06845 4.00691 2.07781
thorax 0.146853 2.01294 -1.84729
lowerneck -11.0439 1.51179 3.45394
upperneck 20.519 1.12659 0.704172
head 8.20317 0.817766 -0.234997
rclavicle 7.41467e-014 -1.59028e-015
rhumerus -230.159 163.486 -281.325
rradius 79.1167
rwrist -40.666
rhand -28.6471 -60.7947
rfingers 7.12502
rthumb -2.01089 -269.235
lclavicle 7.41467e-014 -1.59028e-015
lhumerus -13.0673 -11.0107 82.6738
lradius 96.9024
lwrist 55.6348
lhand -18.7897 23.5726
lfingers 7.12502
lthumb 7.50818 53.4193
rfemur -23.5918 -13.9337 39.2686
rtibia 33.4545
rfoot -20.7781 25.4911
rtoes 24.8668
lfemur -48.5359 18.0146 -9.3856
ltibia 49.2018
lfoot -4.75861 0.344537
ltoes 35.4323
1634
root -3.91456 16.7307 31.2087 -333.664 -44.3098 -19.9956
lowerback 2.22683 3.00669 6.97378
upperback 1.01538 4.12112 2.05128
thorax 0.141605 2.06893 -1.85309
lowerneck -11.0316 1.54272 3.43864
upperneck 20.309 1.19232 0.644829
head 8.13146 0.840773 -0.245911
rclavicle -1.75527e-013 3.33958e-014
rhumerus -229.9 163.262 -281.242
rradius 79.1004
rwrist -40.5094
rhand -28.1012 -60.5329
rfingers 7.12502
rthumb -1.48362 -269.492
lclavicle -1.75527e-013 3.33958e-014
lhumerus -14.0453 -11.4557 82.4299
lradius 96.4792
lwrist 53.2514
lhand -17.166 22.7209
lfingers 7.12502
lthumb 9.07517 52.5056
rfemur -23.4054 -13.829 39.1759
rtibia 33.4124
rfoot -21.2512 25.2954
rtoes 23.7087
lfemur -48.3931 18.2852 -9.50298
ltibia 49.2971
lfoot -5.4093 0.438898
ltoes 35.0526
1635
root -3.94225 16.729 31.2615 -333.465 -44.5005 -20.1162
lowerback 2.16146 3.09696 6.94279
upperback 0.954553 4.23882 2.03415
thorax 0.124107 2.1261 -1.85252
lowerneck -11.0066 1.55509 3.40325
upperneck 20.0855 1.23375 0.600474
head 8.05244 0.852264 -0.25112
rclavicle 6.50026e-014 1.59028e-014
rhumerus -229.639 163.101 -281.103
rradius 79.0896
rwrist -40.3067
rhand -27.5709 -60.2625
rfingers 7.12502
rthumb -0.971489 -269.76
lclavicle 6.50026e-014 1.59028e-014
lhumerus -15.1478 -12.0012 82.2448
lradius 96.0943
lwrist 50.6385
lhand -15.7673 22.0089
lfingers 7.12502
lthumb 10.4247 51.7304
rfemur -23.203 -13.7171 39.0818
rtibia 33.3654
rfoot -21.7358 25.0255
rtoes 22.4734
lfemur -48.2701 18.547 -9.65546
ltibia 49.4065
lfoot -6.0254 0.597359
ltoes 34.5988
1636
root -3.97059 16.7272 31.3162 -333.281 -44.6462 -20.2275
lowerback 2.09424 3.19045 6.91772
upperback 0.885954 4.36118 2.03001
thorax 0.0993795 2.18516 -1.84196
lowerneck -10.9844 1.54617 3.35156
upperneck 19.8618 1.24721 0.563249
head 7.97349 0.850181 -0.254071
rclavicle 7.7526e-015 -1.11319e-014
rhumerus -229.384 163.018 -280.894
rradius 79.098
rwrist -40.0856
rhand -26.9963 -59.8168
rfingers 7.12502
rthumb -0.416546 -89.7962
lclavicle 7.7526e-015 -1.11319e-014
lhumerus -16.3598 -12.6502 82.1362
lradius 95.7539
lwrist 47.8878
lhand -14.6589 21.4348
lfingers 7.12502
lthumb 11.4938 51.0997
rfemur -22.9948 -13.5877 38.9909
rtibia 33.3199
rfoot -22.2271 24.6753
rtoes 21.1696
lfemur -48.1709 18.79 -9.83502
ltibia 49.5279
lfoot -6.60909 0.825941
ltoes 34.2041
1637
root -3.99959 16.7248 31.3727 -333.123 -44.7381 -20.3195
lowerback 2.02184 3.28435 6.8904
upperback 0.810964 4.48392 2.04145
thorax 0.0694653 2.24404 -1.81401
lowerneck -10.9533 1.51547 3.28646
upperneck 19.6336 1.23322 0.527281
head 7.89111 0.834336 -0.257186
rclavicle 7.15625e-015 -4.53229e-014
rhumerus -229.148 163.019 -280.615
rradius 79.1399
rwrist -39.8735
rhand -26.4706 -59.3155
rfingers 7.12502
rthumb 0.0911926 -89.2952
lclavicle 7.15625e-015 -4.53229e-014
lhumerus -17.6887 -13.3915 82.1288
lradius 95.4765
lwrist 45.0837
lhand -13.8524 20.983
lfingers 7.12502
lthumb 12.2714 50.603
rfemur -22.7816 -13.4231 38.8978
rtibia 33.2824
rfoot -22.722 24.2215
rtoes 19.8023
lfemur -48.0887 18.9995 -10.0354
ltibia 49.6564
lfoot -7.16646 1.11418
ltoes 33.9939
1638
root -4.02933 16.7217 31.4311 -332.99 -44.7878 -20.3934
lowerback 1.94001 3.38547 6.85438
upperback 0.73758 4.61516 2.06658
thorax 0.0451906 2.30729 -1.76648
lowerneck -10.9369 1.4627 3.20872
upperneck 19.4092 1.18886 0.499507
head 7.81225 0.804188 -0.258351
rclavicle -2.96189e-014 1.82882e-014
rhumerus -228.926 163.117 -280.256
rradius 79.2224
rwrist -39.6829
rhand -25.9662 -58.6909
rfingers 7.12502
rthumb 0.578432 -88.6699
lclavicle -2.96189e-014 1.82882e-014
lhumerus -19.1092 -14.2163 82.2354
lradius 95.2641
lwrist 42.3189
lhand -13.3075 20.6421
lfingers 7.12502
lthumb 12.7968 50.2299
rfemur -22.5629 -13.2142 38.7974
rtibia 33.2603
rfoot -23.2108 23.6733
rtoes 18.3987
lfemur -48.0075 19.1765 -10.2467
ltibia 49.7833
lfoot -7.71593 1.44288
ltoes 34.0209
1639
root -4.05994 16.7175 31.4914 -332.905 -44.7789 -20.4476
lowerback 1.85638 3.48494 6.81407
upperback 0.671758 4.74346 2.10971
thorax 0.0273468 2.3693 -1.69758
lowerneck -10.9203 1.38849 3.11898
upperneck 19.1833 1.11581 0.478453
head 7.73256 0.760308 -0.258065
rclavicle 2.32578e-014 -2.22639e-014
rhumerus -228.718 163.302 -279.821
rradius 79.3495
rwrist -39.5408
rhand -25.5624 -58.0968
rfingers 7.12502
rthumb 0.968396 -88.0743
lclavicle 2.32578e-014 -2.22639e-014
lhumerus -20.6205 -15.096 82.4686
lradius 95.1194
lwrist 39.6691
lhand -12.9402 20.3687
lfingers 7.12502
lthumb 13.1508 49.934
rfemur -22.3233 -12.9683 38.6922
rtibia 33.2623
rfoot -23.6946 23.0198
rtoes 16.9745
lfemur -47.8931 19.2961 -10.44
ltibia 49.8965
lfoot -8.27485 1.77734
ltoes 34.3258
1640
root -4.09153 16.7123 31.5537 -332.88 -44.7187 -20.4679
lowerback 1.76662 3.58116 6.75415
upperback 0.612902 4.86619 2.16774
thorax 0.016391 2.42882 -1.60187
lowerneck -10.8891 1.29524 3.01984
upperneck 18.9529 1.0171 0.465709
head 7.64857 0.704338 -0.255983
rclavicle 1.05952e-013 7.15625e-015
rhumerus -228.532 163.578 -279.31
rradius 79.5091
rwrist -39.4089
rhand -25.1486 -57.3459
rfingers 7.12502
rthumb 1.36809 -87.3212
lclavicle 1.05952e-013 7.15625e-015
lhumerus -22.2233 -16.0053 82.8353
lradius 95.0387
lwrist 37.1955
lhand -12.6599 20.0926
lfingers 7.12502
lthumb 13.4211 49.6403
rfemur -22.0648 -12.6847 38.5703
rtibia 33.2994
rfoot -24.17 22.2564
rtoes 15.5554
lfemur -47.7197 19.3357 -10.6026
ltibia 49.9812
lfoot -8.86431 2.08957
ltoes 34.8681
